<svg xmlns="http://www.w3.org/2000/svg" viewBox="0 0 1200 200" width="100%">
  <defs>
    <linearGradient id="grad" x1="0%" y1="0%" x2="100%" y2="0%">
      <stop offset="0%" stop-color="#ff00cc" />
      <stop offset="50%" stop-color="#9900ff" />
      <stop offset="100%" stop-color="#00e5ff" />
    </linearGradient>
    <style>
      .wave {
        fill: #0d1117;
      }
      @media (prefers-color-scheme: light) {
        .wave {
          fill: #ffffff;
        }
      }
    </style>
  </defs>
  <rect width="1200" height="200" fill="url(#grad)"/>
  
  <path class="wave" opacity="0.4" d="M0,150 C300,120 600,190 900,140 C1050,115 1150,145 1200,150 L1200,200 L0,200 Z" />
  <path class="wave" opacity="0.25" d="M0,170 C200,150 400,190 700,150 C1000,110 1100,170 1200,160 L1200,200 L0,200 Z" />
  <path class="wave" d="M0,185 C150,170 350,195 600,175 C850,155 1050,185 1200,180 L1200,200 L0,200 Z" />
  
  <text x="600" y="115" font-family="-apple-system, BlinkMacSystemFont, 'Segoe UI', Helvetica, Arial, sans-serif" font-size="48" font-weight="800" fill="#ffffff" text-anchor="middle" letter-spacing="1.5">Bharat Ji Dubey</text>
</svg>
