<svg xmlns="http://www.w3.org/2000/svg" width="1500" height="500" viewBox="0 0 1500 500">
  <rect width="1500" height="500" fill="#0d1117"/>
  <line x1="80" y1="90" x2="1420" y2="90" stroke="#30363d" stroke-width="2"/>
  <line x1="80" y1="410" x2="1420" y2="410" stroke="#30363d" stroke-width="2"/>

  <text x="100" y="170" font-size="54" font-family="Segoe UI, Arial, sans-serif" fill="#f0f6fc" font-weight="700">
    Bharat Ji Dubey
  </text>

  <text x="100" y="220" font-size="28" font-family="Segoe UI, Arial, sans-serif" fill="#58a6ff">
    B.Tech CSE (AI &amp; ML) Undergraduate • Software Developer
  </text>

  <text x="100" y="285" font-size="22" font-family="Segoe UI, Arial, sans-serif" fill="#c9d1d9">
    Building AI-powered applications through practical software engineering.
  </text>

  <text x="100" y="320" font-size="22" font-family="Segoe UI, Arial, sans-serif" fill="#8b949e">
    Learning DSA • Backend Development • AI • Open to Internship Opportunities
  </text>

  <rect x="100" y="355" rx="18" ry="18" width="110" height="36" fill="#161b22" stroke="#58a6ff"/>
  <text x="155" y="379" font-size="18" font-family="Segoe UI, Arial, sans-serif" fill="#58a6ff" text-anchor="middle">Python</text>

  <rect x="225" y="355" rx="18" ry="18" width="80" height="36" fill="#161b22" stroke="#58a6ff"/>
  <text x="265" y="379" font-size="18" font-family="Segoe UI, Arial, sans-serif" fill="#58a6ff" text-anchor="middle">AI</text>

  <rect x="320" y="355" rx="18" ry="18" width="95" height="36" fill="#161b22" stroke="#58a6ff"/>
  <text x="367" y="379" font-size="18" font-family="Segoe UI, Arial, sans-serif" fill="#58a6ff" text-anchor="middle">Web</text>

  <rect x="430" y="355" rx="18" ry="18" width="100" height="36" fill="#161b22" stroke="#58a6ff"/>
  <text x="480" y="379" font-size="18" font-family="Segoe UI, Arial, sans-serif" fill="#58a6ff" text-anchor="middle">Cloud</text>

  <circle cx="1290" cy="170" r="70" fill="none" stroke="#58a6ff" stroke-width="3"/>
  <circle cx="1290" cy="170" r="40" fill="none" stroke="#30363d" stroke-width="2"/>
  <line x1="1220" y1="170" x2="1360" y2="170" stroke="#58a6ff"/>
  <line x1="1290" y1="100" x2="1290" y2="240" stroke="#58a6ff"/>
</svg>
