<svg xmlns="http://www.w3.org/2000/svg" viewBox="0 0 1200 220" width="100%">
  <defs>
    <linearGradient id="grad" x1="0%" y1="0%" x2="100%" y2="0%">
      <stop offset="0%" stop-color="#ff00cc" />
      <stop offset="50%" stop-color="#9900ff" />
      <stop offset="100%" stop-color="#00e5ff" />
    </linearGradient>
    <style>
      .wave {
        fill: #0d1117;
      }
      @media (prefers-color-scheme: light) {
        .wave {
          fill: #ffffff;
        }
      }
    </style>
  </defs>
  <rect width="1200" height="220" fill="url(#grad)"/>
  
  <path class="wave" opacity="0.4" d="M0,0 L1200,0 L1200,60 C1050,65 950,25 900,30 C600,105 300,0 0,75 Z" />
  <path class="wave" opacity="0.25" d="M0,0 L1200,0 L1200,45 C1100,60 1000,15 700,75 C400,15 200,75 0,35 Z" />
  <path class="wave" d="M0,0 L1200,0 L1200,22 C1050,30 850,7 600,37 C350,7 150,45 0,30 Z" />

  <text x="600" y="130" font-family="-apple-system, BlinkMacSystemFont, 'Segoe UI', Helvetica, Arial, sans-serif" font-size="32" font-weight="bold" fill="#ffffff" text-anchor="middle">Thanks for visiting my profile! 🙏</text>
  <text x="600" y="175" font-family="-apple-system, BlinkMacSystemFont, 'Segoe UI', Helvetica, Arial, sans-serif" font-size="20" fill="#ffffff" opacity="0.9" text-anchor="middle">If you like my work, consider ⭐ starring my repositories.</text>
</svg>
